<?xml version="1.0" standalone="no"?><!DOCTYPE svg PUBLIC "-//W3C//DTD SVG 1.1//EN" "http://www.w3.org/Graphics/SVG/1.1/DTD/svg11.dtd"><svg t="1559019184122" class="icon" style="" viewBox="0 0 1024 1024" version="1.1" xmlns="http://www.w3.org/2000/svg" p-id="2103" xmlns:xlink="http://www.w3.org/1999/xlink" width="200" height="200"><defs><style type="text/css"></style></defs><path d="M512 512c-76.8 0-139.636364-62.836364-139.636364-139.636364s62.836364-139.636364 139.636364-139.636363 139.636364 62.836364 139.636364 139.636363-62.836364 139.636364-139.636364 139.636364z m0-232.727273c-51.2 0-93.090909 41.890909-93.090909 93.090909s41.890909 93.090909 93.090909 93.090909 93.090909-41.890909 93.090909-93.090909-41.890909-93.090909-93.090909-93.090909z" p-id="2104"></path><path d="M512 930.909091l-16.290909-18.618182C290.909091 688.872727 186.181818 518.981818 186.181818 407.272727 186.181818 235.054545 332.8 93.090909 512 93.090909s325.818182 141.963636 325.818182 314.181818c0 111.709091-104.727273 281.6-309.527273 505.018182l-16.290909 18.618182z m0-791.272727c-153.6 0-279.272727 121.018182-279.272727 267.636363 0 67.490909 48.872727 200.145455 279.272727 453.818182 230.4-253.672727 279.272727-388.654545 279.272727-453.818182C791.272727 260.654545 665.6 139.636364 512 139.636364z" p-id="2105"></path></svg>