<?xml version="1.0" standalone="no"?><!DOCTYPE svg PUBLIC "-//W3C//DTD SVG 1.1//EN" "http://www.w3.org/Graphics/SVG/1.1/DTD/svg11.dtd"><svg t="1560947508188" class="icon" style="" viewBox="0 0 1024 1024" version="1.1" xmlns="http://www.w3.org/2000/svg" p-id="3047" xmlns:xlink="http://www.w3.org/1999/xlink" width="200" height="200"><defs><style type="text/css"></style></defs><path d="M544 64C279.04 64 64 279.04 64 544S279.04 1024 544 1024 1024 808.96 1024 544 808.96 64 544 64zM544 960C314.24 960 128 773.76 128 544S314.24 128 544 128C773.76 128 960 314.24 960 544S773.76 960 544 960zM588.16 540.8l168.32-166.4c12.8-12.8 12.8-33.28 0-45.44-12.8-12.8-33.28-12.8-46.08 0L542.08 494.08 376.96 328.32c-12.8-12.8-33.28-12.8-45.44 0-12.8 12.8-12.8 33.28 0 45.44l164.48 165.76-174.72 172.8c-12.8 12.8-12.8 33.28 0 45.44 12.8 12.8 33.28 12.8 46.08 0l174.08-172.16 171.52 172.16c12.8 12.8 33.28 12.8 45.44 0 12.8-12.8 12.8-33.28 0-45.44L588.16 540.8z" p-id="3048" fill="#ffffff"></path></svg>