<?xml version="1.0" standalone="no"?><!DOCTYPE svg PUBLIC "-//W3C//DTD SVG 1.1//EN" "http://www.w3.org/Graphics/SVG/1.1/DTD/svg11.dtd"><svg t="1561008220631" class="icon" style="" viewBox="0 0 1024 1024" version="1.1" xmlns="http://www.w3.org/2000/svg" p-id="3629" xmlns:xlink="http://www.w3.org/1999/xlink" width="128" height="128"><defs><style type="text/css"></style></defs><path d="M512.268258 126.93004c-212.327195 0-385.06996 172.740717-385.06996 385.06996 0 212.329243 172.741741 385.06996 385.06996 385.06996s385.06996-172.740717 385.06996-385.06996c0-212.329243-172.742765-385.06996-385.06996-385.06996z m0 734.039771c-192.421841 0-348.969811-156.547971-348.969811-348.969811 0-192.421841 156.546947-348.969811 348.969811-348.969811S861.237045 319.578159 861.237045 512c0 192.421841-156.546947 348.969811-348.968787 348.969811z m224.551362-470.040155c7.04945 7.050474 7.04945 18.478058 0 25.528533L498.55741 654.720399c-0.062457 0.063481-0.132081 0.115699-0.194539 0.176109-0.212968 0.206825-0.435151 0.397268-0.654262 0.591805-0.263139 0.230374-0.526277 0.460748-0.797607 0.674741-0.231398 0.181228-0.466892 0.348121-0.704433 0.517062a18.83949 18.83949 0 0 1-1.580879 1.005455c-0.317404 0.176108-0.636857 0.346073-0.961428 0.502728-0.231398 0.11058-0.461772 0.225255-0.696242 0.326619-0.350169 0.152559-0.705457 0.295903-1.062793 0.424913-0.222183 0.079863-0.442318 0.181228-0.667574 0.251876-0.384981 0.121842-0.775081 0.261091-1.167229 0.355288-0.205801 0.052218-0.410578 0.183275-0.617403 0.225255-0.438223 0.09215-0.880541 0.306142-1.32286 0.364503-0.166893 0.021502-0.331739-0.242661-0.499656-0.226279-0.610236 0.063481-1.223543 0.102389-1.83685 0.102389H485.78444c-0.548803 0-1.097605-0.03174-1.645384-0.083959-0.153583-0.014334-0.306142-0.343002-0.459724-0.361432-0.39522-0.045051-0.788392 0.053242-1.18054-0.019453-0.188395-0.035836-0.374742-0.007167-0.563137-0.047099-0.351193-0.077815-0.701361-0.122866-1.049482-0.219112-0.206825-0.058361-0.410578-0.10546-0.614331-0.172012-0.3215-0.103412-0.641976-0.204777-0.958357-0.32662-0.218088-0.084982-0.434127-0.166893-0.64812-0.26109a17.768506 17.768506 0 0 1-0.875421-0.404435c-0.223207-0.11058-0.44539-0.220135-0.665526-0.341978a15.405379 15.405379 0 0 1-0.806822-0.476107c-0.221159-0.136177-0.443342-0.270306-0.659382-0.418769a19.699554 19.699554 0 0 1-0.779176-0.571328c-0.200682-0.154607-0.404435-0.301022-0.599997-0.462796-0.040955-0.035836-0.083959-0.063481-0.124914-0.096245L320.126962 525.791735c-7.619755-6.427952-8.584255-17.817652-2.156303-25.437407 6.43-7.617707 17.817652-8.583231 25.43536-2.155278l141.351464 119.265234 226.535652-226.533604c7.048427-7.046379 18.478058-7.046379 25.526485-0.001024z" fill="#ffffff" p-id="3630"></path></svg>