<?xml version="1.0" standalone="no"?><!DOCTYPE svg PUBLIC "-//W3C//DTD SVG 1.1//EN" "http://www.w3.org/Graphics/SVG/1.1/DTD/svg11.dtd"><svg t="1559020142744" class="icon" style="" viewBox="0 0 1024 1024" version="1.1" xmlns="http://www.w3.org/2000/svg" p-id="9290" xmlns:xlink="http://www.w3.org/1999/xlink" width="200" height="200"><defs><style type="text/css"></style></defs><path d="M684.032 692.288a64.128 64.128 0 0 1 88.96-0.128A416.64 416.64 0 0 0 870.4 424.576C870.4 190.08 675.584 0 435.2 0S0 190.08 0 424.576s194.816 424.576 435.2 424.576c91.264 0 175.872-27.52 245.824-74.304a59.776 59.776 0 0 1 3.008-82.56z m-248.832 32c-169.664 0-307.2-134.144-307.2-299.712s137.536-299.712 307.2-299.712 307.2 134.208 307.2 299.712-137.536 299.712-307.2 299.712z" fill="#2c2c2c" p-id="9291"></path><path d="M1004.8 918.336l-231.68-226.048-0.192-0.128c-26.368 31.68-57.344 59.52-91.968 82.688 1.216 1.344 1.664 3.072 3.008 4.352l231.68 226.048a64.192 64.192 0 0 0 89.152 0 60.352 60.352 0 0 0 0-86.912z" fill="#2c2c2c" p-id="9292"></path><path d="M772.928 692.16a64.128 64.128 0 0 0-88.96 0.128 59.84 59.84 0 0 0-3.008 82.56 432.512 432.512 0 0 0 91.968-82.688z" fill="#2c2c2c" p-id="9293"></path></svg>