<svg t="1560955304538" class="icon" viewBox="0 0 1024 1024" version="1.1" xmlns="http://www.w3.org/2000/svg" p-id="10776" height="200" width="200"><path d="M809.2 732.6c-0.2-6.6 1.4-12.9 4.3-18.7-7.5-15.1-15.8-29.8-24.7-44.1-5.5-8.8-11.1-17.5-16.3-26.5-3.7-6.4-7.5-12.7-11.7-18.7-0.9-1.1-1.9-2.1-2.8-3.1-10.8 0.3-21.4-5.7-29-12.8-6.2-5.7-9.9-13.5-11.6-21.6-39.6-12.5-84-19.6-131-19.6-154.7 0-282 76.2-297.6 174h521.3c-0.5-2.8-0.8-5.8-0.9-8.9z" fill="#c8db8c" p-id="10777" data-spm-anchor-id="a313x.7781069.0.i104" class="selected"></path><path d="M539.1 387.6m-147 0a147 147 0 1 0 294 0 147 147 0 1 0-294 0Z" fill="#c8db8c" p-id="10778" data-spm-anchor-id="a313x.7781069.0.i106" class="selected"></path><path d="M850.9 752.4c0 14.5-11.8 26.3-26.3 26.3s-26.3-11.8-26.3-26.3v-14.2c0-65.8-134-158.9-287.7-158.9-122.2 0-289.8 78.2-289.8 156.2v17c0 14.5-11.8 26.3-26.3 26.3s-26.3-11.8-26.3-26.3v-32.9c0-39.5 58.5-140.6 218.1-178-57.5-39.5-95.6-105.6-95.6-180.7 0-120.8 98-218.8 218.8-218.8 120.8 0 218.8 98 218.8 218.8 0 73.7-36.7 138.8-92.8 178.7 161.3 36 215.4 142.3 215.4 180v32.8zM675.7 360.5c0-91.8-74.4-166.2-166.2-166.2s-166.2 74.4-166.2 166.2 74.4 166.2 166.2 166.2 166.2-74.4 166.2-166.2z m0 0" fill="#595857" p-id="10779"></path><path d="M819.4 779.6H201.1c-14.9 0-27.1-12.2-27.1-27.1v-2.3c0-14.9 12.2-27.1 27.1-27.1h618.2c14.9 0 27.1 12.2 27.1 27.1v2.3c0.1 14.8-12.1 27.1-27 27.1z" fill="#595857" p-id="10780"></path></svg>