<?xml version="1.0" standalone="no"?><!DOCTYPE svg PUBLIC "-//W3C//DTD SVG 1.1//EN" "http://www.w3.org/Graphics/SVG/1.1/DTD/svg11.dtd"><svg t="1559017401804" class="icon" style="" viewBox="0 0 1924 1024" version="1.1" xmlns="http://www.w3.org/2000/svg" p-id="2657" xmlns:xlink="http://www.w3.org/1999/xlink" width="375.78125" height="200"><defs><style type="text/css"></style></defs><path d="M1165.925708 528.312436c-7.667597 0-23.153135 1.954485-23.153134 1.954485 52.921451-18.342094 90.507708-68.256644 90.507708-127.04155 0-74.1201-60.589047-134.709147-134.709147-134.709147-32.775217 0-62.543533 11.576567-86.598737 31.722801l-1.954486-3.908971c16.387608-26.00969 26.00969-55.778006 26.00969-88.553222 0-93.364264-75.02217-168.386434-168.386433-168.386434s-168.386434 75.02217-168.386434 168.386434c0 39.390398 13.531053 75.02217 35.631772 103.888415-24.957275-26.00969-59.686977-43.299369-98.175305-43.299368-74.1201 0-134.709147 60.589047-134.709147 134.709147 0 58.634562 38.488328 108.699457 90.507709 127.04155 0 0-15.335193-1.954485-23.153135-1.954485-74.1201 0-134.709147 60.589047-134.709147 134.709147 0 35.631772 14.433123 65.400088 36.533842 90.507708 121.178094 134.709147 406.532961 122.230509 456.597857 117.419468 50.064895 4.811041 214.993393 17.289678 336.321832-117.419468 23.153135-24.957275 36.533842-54.875936 36.533842-90.507708 0-74.871825-60.589047-134.558802-134.709147-134.558802z" fill="#BFD182" p-id="2658"></path><path d="M735.788577 897.710175h-2.856555c-85.696667-8.720012-204.018206-37.586258-282.949347-125.989136-10.524152-11.576567-9.622082-29.768316 1.954485-40.442813 11.576567-10.524152 29.768316-9.622082 40.442814 1.954486 66.452503 74.1201 170.340919 99.077375 245.363089 106.744971 15.335193 1.954485 26.91176 15.335193 26.00969 31.722802-1.052415 15.485538-13.531053 26.00969-27.964176 26.00969z m0 0" fill="#2E8E6D" p-id="2659"></path><path d="M735.788577 907.482602h-3.90897c-87.200117-8.870357-208.227867-38.337983-289.263838-129.296726-6.765526-7.366906-10.373807-17.289678-9.772427-27.513141 0.451035-10.223462 4.961386-19.695199 12.478637-26.61107 7.066216-6.464836 16.086918-9.922772 25.709-9.922772 10.824842 0 21.198649 4.510351 28.415211 12.478637 64.648363 72.015269 165.680223 96.220819 239.198943 103.738071h0.150345c20.897959 2.555866 35.782117 20.747614 34.579357 42.096609-1.20276 19.995889-17.440023 35.030392-37.586258 35.030392z m-2.40552-19.544854h2.40552c9.922772 0 17.590369-7.066216 18.191749-16.838644 0.60138-10.824842-6.765526-19.995889-17.289679-21.499339-76.82631-7.968287-182.819557-33.376597-251.527235-110.052562-3.457936-3.758626-8.569667-6.013801-13.982088-6.013801-4.660696 0-9.171047 1.653795-12.478637 4.811041-3.758626 3.307591-5.863456 7.968287-6.164146 13.080017-0.30069 5.111731 1.50345 9.772427 4.811041 13.531053 76.675965 86.298047 192.291293 114.562913 276.033475 122.982235z" fill="#2E8E6D" p-id="2660"></path><path d="M471.181324 781.343121c-7.667597 0-15.335193-2.856556-21.198649-9.622082-29.768316-31.722801-44.201439-69.309059-44.201439-109.751871 0-70.211129 44.201439-129.898106 106.744972-153.051241-24.957275-28.866246-39.390398-66.452503-39.390398-106.744971 0-77.878726 55.778006-146.285714 132.754661-160.718838 15.335193-2.856556 30.820731 7.667597 33.677287 23.153135 2.856556 15.335193-7.667597 30.820731-23.153135 33.677287-50.064895 9.622082-85.696667 52.921451-85.696667 103.888416 0 45.253854 28.866246 85.696667 71.263545 100.12979 14.433123 4.811041 22.100719 19.244164 18.342093 33.677286-3.908971 14.433123-17.289678 24.055205-31.722801 22.10072-5.713111-0.90207-15.335193-1.954485-19.244164-1.954486-58.634562 0-105.842901 47.208339-105.842901 105.842902 0 26.91176 9.622082 50.064895 28.866246 71.263544 10.524152 11.576567 10.524152 29.768316-1.954486 40.442813-4.811041 5.713111-11.576567 7.667597-19.244164 7.667596z" fill="#2E8E6D" p-id="2661"></path><path d="M471.181324 791.115548c-11.125532 0-21.198649-4.510351-28.41521-12.929672-30.971076-33.075907-46.757304-72.165614-46.757305-116.216708 0-36.082807 10.975187-70.662164 31.722802-99.8291 17.740714-24.957275 41.495228-44.502129 69.008368-57.281457-21.649684-29.467626-33.526942-65.400088-33.526941-102.685655 0-39.991778 14.132433-79.231831 39.691088-110.353253 25.709-31.271766 61.641462-52.470416 101.03186-59.987667 2.255175-0.451035 4.660696-0.60138 6.915871-0.60138 18.342094 0 34.729702 13.531053 38.187638 31.572457 3.908971 20.597269-10.223462 41.194538-30.820731 45.103509-44.953164 8.720012-77.728381 48.260755-77.728381 94.266334 0 41.194538 26.00969 77.578036 64.648363 90.808398 19.244164 6.464836 29.768316 26.00969 24.50624 45.404199-4.660696 17.440023-20.146234 29.617971-37.586257 29.617971-1.653795 0-3.307591-0.150345-4.961386-0.30069h-0.300691c-5.562766-0.90207-14.583468-1.80414-17.590368-1.804141-52.921451 0-96.070474 43.149024-96.070474 96.070475 0 24.355895 8.419322 44.802819 26.31038 64.648362 7.066216 7.817942 10.824842 18.191749 10.223462 28.565556-0.60138 9.772427-4.961386 18.793129-12.328292 25.257965-6.164146 7.066216-14.884158 10.674497-26.160036 10.674497z m139.820878-540.340038c-1.052415 0-2.255175 0.150345-3.30759 0.30069-72.315959 13.531053-124.786375 77.127-124.786375 151.096756 0 37.135222 13.230363 72.766995 36.984877 100.43048l9.321392 10.674497-13.230363 4.961386c-59.987667 22.251064-100.43048 79.983556-100.43048 143.880194 0 38.939363 13.982088 73.669065 41.645574 102.986345l0.30069 0.30069c4.360006 5.111731 9.922772 6.164146 13.681397 6.164146 7.366906 0 10.073117-2.255175 11.726913-4.20966l0.60138-0.60138 0.60138-0.601381c4.660696-3.908971 5.863456-8.870357 6.164146-12.177947 0.30069-5.111731-1.50345-10.373807-5.111731-14.132433-21.198649-23.30348-31.422111-48.71179-31.422111-77.878725 0-30.971076 12.027602-60.138012 33.827632-81.787697 21.800029-21.800029 50.81662-33.827632 81.787696-33.827632 4.811041 0 14.884158 1.052415 20.597269 1.954486 0.751725 0.150345 1.50345 0.150345 2.255176 0.150345 8.569667 0 16.237263-6.164146 18.642783-15.184848 2.555866-9.471737-2.40552-18.793129-11.877257-21.950375-46.606959-15.936573-77.878726-59.837322-77.878726-109.300837 0-26.91176 9.321392-53.071796 26.310381-73.669064 16.988988-20.597269 40.893848-34.729702 67.354573-39.841433 10.223462-1.954485 17.289678-12.177947 15.335193-22.251065-1.80414-8.720012-9.922772-15.485538-19.093819-15.485538z" fill="#2E8E6D" p-id="2662"></path><path d="M734.886507 339.629423c-8.720012 0-17.289678-3.908971-23.153135-10.524152-27.964176-34.579357-42.397298-76.976655-42.397298-121.178094C669.336074 99.077375 757.889297 10.674497 866.588753 10.674497c108.699457 0 197.252679 88.553223 197.25268 197.25268 0 16.387608-12.478637 28.866246-28.866246 28.866245-16.387608 0-28.866246-12.478637-28.866246-28.866245 0-76.976655-62.543533-139.520188-139.520188-139.520188-76.976655 0-139.520188 62.543533-139.520187 139.520188 0 31.722801 10.524152 60.589047 29.768316 85.696667 9.622082 12.478637 7.667597 30.820731-4.811041 40.442813-4.660696 3.758626-10.524152 5.562766-17.139334 5.562766z" fill="#2E8E6D" p-id="2663"></path><path d="M734.886507 349.40185c-11.576567 0-23.00279-5.262076-30.520041-13.982088l-0.150345-0.30069c-29.166936-36.082807-44.502129-80.133901-44.502129-127.34224 0-114.111878 92.913229-207.025106 207.025107-207.025107 114.111878 0 207.025106 92.913229 207.025106 207.025107 0 21.649684-16.988988 38.638673-38.638673 38.638672-21.649684 0-38.638673-16.988988-38.638673-38.638672 0-71.564234-58.183527-129.747761-129.74776-129.747761-71.564234 0-129.747761 58.183527-129.747761 129.747761 0 28.866246 9.321392 55.627661 27.81383 79.682866 6.164146 8.118632 9.020702 18.191749 7.817942 28.41521-1.20276 10.373807-6.314491 19.394509-14.433123 25.709-6.615181 5.262076-14.433123 7.817942-23.30348 7.817942z m-15.635883-26.61107c3.908971 4.360006 9.622082 7.066216 15.635883 7.066216 4.510351 0 8.118632-1.20276 11.275877-3.608281l0.150345-0.150345c3.908971-3.006901 6.314491-7.366906 6.915872-12.478637 0.60138-5.111731-0.751725-10.223462-3.908971-14.282778-21.198649-27.513141-31.873146-58.333872-31.873146-91.560123 0-82.389076 66.903538-149.292615 149.292615-149.292615s149.292615 66.903538 149.292614 149.292615c0 10.824842 8.268977 19.093819 19.093819 19.093818 10.824842 0 19.093819-8.268977 19.093819-19.093818 0-103.437381-84.042872-187.480253-187.480252-187.480253-103.437381 0-187.480253 84.042872-187.480253 187.480253-0.150345 42.697989 13.831743 82.539422 39.991778 115.013948z" fill="#2E8E6D" p-id="2664"></path><path d="M963.110263 901.619145c-17.289678 0-5.562766-0.90207-24.80693-1.954485-16.387608-0.90207-27.964176-14.433123-26.911761-30.820731 0.90207-16.387608 14.433123-27.964176 30.820732-26.91176 57.732492 3.908971 194.847159 7.667597 299.78799-108.699457 10.524152-11.576567 28.866246-12.478637 40.442813-1.954486s12.478637 28.866246 1.954485 40.442813c-35.782117 41.344883-109.601527 129.898106-321.287329 129.898106z" fill="#2E8E6D" p-id="2665"></path><path d="M963.110263 911.391572c-16.688298 0-4.059316-0.90207-22.40141-1.80414l-2.856555-0.150345c-21.649684-1.20276-37.435912-19.394509-36.233153-41.194538 1.20276-21.499339 19.244164-37.435912 41.194539-36.082807 9.321392 0.60138-5.863456 1.353105 12.328292 1.353105 79.682866 0 195.749229-13.831743 279.491411-106.895317 7.366906-7.968287 17.740714-12.478637 28.565556-12.478637 9.622082 0 18.793129 3.457936 25.709 9.922772 15.635883 14.282778 16.838643 38.488328 2.706211 54.124211-15.786228 18.342094-51.418 53.372486-112.608428 82.840111-69.760094 33.376597-122.380855 50.365585-215.895463 50.365585z m-22.852445-59.686976c-10.524152 0-18.492439 7.517252-19.093819 17.740713-0.60138 10.975187 6.915871 19.845544 17.740714 20.446924l2.706211 0.150345c18.191749 0.90207 5.262076 1.80414 21.499339 1.804141 211.986492 0 280.994861-88.402878 313.770078-126.440171l0.150345-0.30069c6.915871-7.517252 6.314491-19.695199-1.353106-26.61107-3.307591-3.157246-7.817942-4.811041-12.478637-4.811041-5.412421 0-10.524152 2.255175-14.132433 6.164146-88.853913 98.475995-211.084422 113.209808-293.924534 113.209808-15.034503 0 0.30069-0.451035-13.681398-1.353105h-1.20276z" fill="#2E8E6D" p-id="2666"></path><path d="M1264.101013 781.343121c-6.765526 0-14.433123-2.856556-19.244164-7.667596-11.576567-10.524152-12.478637-28.866246-1.954485-40.442813 19.244164-21.198649 28.866246-44.201439 28.866246-71.263544 0-58.634562-47.208339-105.842901-105.842902-105.842902-3.908971 0-14.433123 0.90207-19.244163 1.954486-14.433123 1.954485-28.866246-7.667597-31.722802-22.10072-3.908971-14.433123 4.811041-28.866246 18.342094-33.677286 42.397298-14.433123 71.263544-54.875936 71.263544-100.12979 0-58.634562-47.208339-105.842901-105.842901-105.842902-29.768316 0-56.830421 11.576567-76.976655 33.677287-10.524152 11.576567-27.964176 12.478637-39.390398 1.954485-11.576567-9.622082-13.531053-27.964176-3.908971-39.390397 19.244164-24.957275 29.768316-54.875936 29.768316-85.696668 0-76.976655-62.543533-139.520188-139.520188-139.520188-16.387608 0-28.866246-12.478637-28.866246-28.866245 0-16.387608 12.478637-28.866246 28.866246-28.866246C977.393041 9.622082 1065.946263 98.175305 1065.946263 206.874761c0 12.478637-0.90207 24.055205-2.856555 36.533843 12.478637-2.856556 24.055205-3.908971 36.533842-3.908971 90.507708 0 163.575393 73.067685 163.575393 163.575393 0 40.442813-14.433123 76.976655-39.390398 106.744971 62.543533 23.153135 106.744971 82.689767 106.744971 153.051241 0 41.344883-15.335193 77.878726-44.201438 109.751872-6.915871 5.863456-14.583468 8.720012-22.251065 8.720011z" fill="#2E8E6D" p-id="2667"></path><path d="M1264.101013 791.115548c-9.471737 0-19.544854-3.908971-26.00969-10.373807-15.485538-14.433123-16.537953-38.638673-2.405521-54.124211 17.891059-19.695199 26.31038-40.292468 26.310381-64.648362 0-52.921451-43.149024-96.070474-96.070475-96.070475-3.157246 0-13.080018 0.90207-17.289678 1.804141l-0.60138 0.150345c-1.653795 0.150345-3.307591 0.30069-4.961386 0.30069-18.191749 0-33.977977-12.628983-37.586258-29.918661-4.811041-18.642784 5.863456-38.488328 24.50624-45.103509 38.789018-13.230363 64.648363-49.764205 64.648363-90.808398 0-52.921451-43.149024-96.070474-96.070474-96.070475-27.362795 0-51.568345 10.524152-69.760094 30.520041-7.216561 7.968287-17.440023 12.478637-27.964176 12.478638-9.321392 0-18.191749-3.457936-25.10762-9.772427-7.366906-6.164146-12.177947-15.485538-13.080017-25.40831-1.052415-10.073117 1.954485-19.995889 8.118631-27.513141 18.191749-23.60417 27.663486-51.11731 27.663486-79.532521 0-71.564234-58.183527-129.747761-129.747761-129.747761-21.649684 0-38.638673-16.988988-38.638673-38.638672s16.988988-38.638673 38.638673-38.638673c114.111878 0 207.025106 92.913229 207.025106 207.025106 0 8.268977-0.451035 16.237263-1.20276 24.50624 7.817942-1.052415 15.936573-1.653795 25.10762-1.653795 95.619439 0 173.34782 77.728381 173.34782 173.34782 0 37.135222-11.576567 72.315959-33.677287 102.685655 27.663486 12.628983 51.418 32.324181 69.158714 57.281457 20.747614 29.166936 31.722801 63.746293 31.722801 99.8291 0 42.998679-15.786228 82.088386-46.757304 116.216708l-0.451035 0.451035-0.451035 0.451035c-8.419322 7.216561-18.191749 10.975187-28.415211 10.975187z m-98.175305-244.761709c30.971076 0 59.987667 12.027602 81.787697 33.827632s33.827632 50.81662 33.827632 81.787697c0 29.016591-10.223462 54.575246-31.422112 77.72838-6.915871 7.517252-6.314491 19.695199 1.353106 26.61107l0.30069 0.30069c2.856556 2.856556 7.968287 4.811041 12.328292 4.811041 5.262076 0 10.674497-2.10483 15.335193-6.013801 27.362795-30.369696 41.344883-64.798708 41.344883-102.685655 0-63.896638-40.292468-121.629129-100.43048-143.880194l-13.080017-4.510351 8.870356-10.674497c24.355895-29.016591 37.135222-63.746293 37.135223-100.580825 0-84.794597-69.008369-153.802966-153.802966-153.802966-12.929673 0-23.60417 1.052415-34.429012 3.608281l-13.982088 3.30759 2.255176-14.282778c1.954485-12.328292 2.706211-23.453825 2.70621-35.030392 0-103.437381-84.042872-187.480253-187.480252-187.480252-10.824842 0-19.093819 8.268977-19.093819 19.093819 0 10.824842 8.268977 19.093819 19.093819 19.093819 82.389076 0 149.292615 66.903538 149.292615 149.292614 0 32.775217-10.975187 64.498018-31.873147 91.560124l-0.30069 0.30069c-2.856556 3.457936-4.360006 8.268977-3.758625 13.230362 0.451035 4.961386 2.856556 9.471737 6.464836 12.478638l0.30069 0.30069c3.457936 3.157246 7.667597 4.811041 12.027602 4.811041 5.111731 0 9.922772-2.10483 13.531053-6.164146 21.950374-24.055205 51.11731-36.834532 84.193217-36.834533 30.971076 0 59.987667 12.027602 81.787696 33.827632s33.827632 50.81662 33.827632 81.787697c0 49.463515-31.271766 93.514609-77.878726 109.300836-9.020702 3.307591-14.433123 12.929673-12.027602 21.950375l0.150345 0.60138c1.653795 8.268977 9.622082 14.583468 18.492439 14.583468 0.751725 0 1.50345 0 2.10483-0.150345 5.713111-1.052415 16.537953-2.10483 21.048304-2.104831z" fill="#2E8E6D" p-id="2668"></path><path d="M858.319777 549.511085c-6.765526 0-12.478637-1.954485-18.342094-6.765526L745.711349 465.919248c-12.478637-9.622082-14.433123-27.964176-3.90897-40.442813 9.622082-12.478637 27.964176-14.433123 40.442813-3.908971l94.266333 76.976656c12.478637 9.622082 14.433123 27.964176 3.908971 40.442813-5.713111 6.765526-14.433123 10.524152-22.100719 10.524152zM881.322566 437.053002c-8.720012 0-17.289678-3.908971-23.153134-11.576567-9.622082-12.478637-6.765526-30.820731 5.713111-40.442813l60.589047-45.253854c12.478637-9.622082 30.820731-6.765526 40.442813 5.713111 9.622082 12.478637 6.765526 30.820731-5.713111 40.442813l-60.589047 45.253854c-5.713111 3.908971-11.426222 5.863456-17.289679 5.863456zM912.293643 674.59815c-9.622082 0-19.244164-4.811041-24.957275-13.531053-8.720012-13.531053-3.908971-31.722801 9.622082-39.390398l99.077374-61.641462c13.531053-8.720012 31.722801-3.908971 39.390398 9.622082 8.720012 13.531053 3.908971 31.722801-9.622082 39.390398l-99.077374 61.641462c-3.908971 2.10483-9.622082 3.908971-14.433123 3.908971z" fill="#2E8E6D" p-id="2669"></path><path d="M820.883864 177.707826c-7.667597 0-15.335193-2.856556-21.198649-9.622082-10.524152-11.576567-9.622082-29.768316 1.954485-40.442813 26.00969-23.153135 58.634562-35.631772 93.364264-35.631773 16.387608 0 28.866246 12.478637 28.866246 28.866246 0 16.387608-12.478637 28.866246-28.866246 28.866246-20.146234 0-39.390398 7.667597-54.875936 21.198649-5.713111 3.908971-12.478637 6.765526-19.244164 6.765527z m-36.533842 81.787696c-7.667597 0-15.335193-2.856556-20.146234-8.720012-5.713111-5.713111-8.720012-12.478637-8.720012-20.146234s2.856556-15.335193 8.720012-20.146234c0.90207-0.90207 2.856556-2.856556 4.811041-3.908971 1.954485-0.90207 2.856556-1.954485 4.811041-2.856555 1.954485-0.90207 3.908971-0.90207 5.713111-1.954486 9.622082-1.954485 19.244164 0.90207 26.00969 7.667597 5.713111 5.713111 8.720012 12.478637 8.720012 20.146234s-2.856556 15.335193-8.720012 20.146234c-6.765526 6.915871-13.531053 9.772427-21.198649 9.772427z m0 0" fill="#FFFFFF" p-id="2670"></path><path d="M878.315666 1013.475848c-18.342094 0-33.075907-14.733813-33.075907-33.075907V301.59213c0-18.342094 14.733813-33.075907 33.075907-33.075906s33.075907 14.733813 33.075906 33.075906V980.399941c0 18.191749-14.884158 33.075907-33.075906 33.075907z" fill="#2E8E6D" p-id="2671"></path></svg>