<?xml version="1.0" standalone="no"?><!DOCTYPE svg PUBLIC "-//W3C//DTD SVG 1.1//EN" "http://www.w3.org/Graphics/SVG/1.1/DTD/svg11.dtd"><svg t="1559017434540" class="icon" style="" viewBox="0 0 1024 1024" version="1.1" xmlns="http://www.w3.org/2000/svg" p-id="3082" xmlns:xlink="http://www.w3.org/1999/xlink" width="200" height="200"><defs><style type="text/css"></style></defs><path d="M832.8 167.9c-4.9-14.2-73.5-6.5-107.5 8.7S573.9 284.7 550.5 336.1c-23.3 51.4-16.1 59.5-27.8 78.1-11.7 18.7-15.9 30.9-20.5 25.6-4.7-5.2-2.1-15.4 7.3-33.8 9.3-18.4 26-51 29.9-72.9 3.9-21.9-9.4-103.2-10.7-136.6-1.3-33.4-14.3-98.1-31.2-98.6-16.8-0.5-64.2 64.3-69.7 113.2-5.5 48.9-16.2 129.3 3.9 180.9 20.1 51.6 31.6 39.1 38.2 62 6.6 22.9-13 76.5-38 108.8s-34.3 43.4-44.8 40c-10.4-3.4-15.8-26.9-8.4-43.4s24.3-34.4 24.6-57.1c0.2-22.6-8.7-105-14.1-126.1-5.5-21.2-19.3-68-21.2-86.1-1.9-18.1 2.6-62.5-9.8-67.1-22-7-53.2 47.1-70.6 122.6-17.3 75.5 6.4 137.2 14.1 149.6 7.7 12.4 25.8 42.9 38.6 56.8 12.8 13.9 23.9 19.4 27.3 43.2 3.4 23.8 5 35.7-9.1 69.2s-61.2 138.5-77 154.3c-3.9-39.3 6-28 6.9-58.9 0.9-31-2.8-40.6 2.8-68.7 5.6-28-19.6-129.2-42.6-156.1-11.2-14-7.4-49.7-14.2-50.4-6.8-0.7-8.8-2.3-12.9 20.7-4.2 23-39.9 94.6-31.8 157.1 8.1 62.5 11.9 68.3 20.3 81.3s20 21.6 28.9 46.6c8.9 25 10 37.5 19.2 44.9 9.2 7.4-15 86-15 86l26.1 5.6s23-116.3 46.5-127c23.5-10.8 34.6 16.3 77.2 16.6 42.6 0.3 96.3-14.7 119.9-24.3 23.6-9.6 38.2-14.9 61.5-33.7 23.3-18.9 52.3-62.7 69.4-83.2 17.1-20.6 29.3-23.7 24-31-5.4-7.3-30.9-3.2-56.6-1.7-25.7 1.4-106.3 6-165.6 27.6-59.3 21.5-78.9 66.6-89.1 78.2-10.2 11.7-13.6 25.6-22.7 19.8-9.1-5.8-4.4-13.6 1.2-21.7 5.6-8 72.5-164.1 150.6-178.2 37.7-5.4 35.1 22.9 85.6 24.1 50.5 1.2 128.8-17.4 187.7-91.3 43.7-54.9 56.6-105.6 61.8-112.2 5.2-6.6-26.6-12.2-49.5-6-22.9 6.2-32.4 15-54.6 17.9-22.2 2.9-117.5 9.8-158 47.8-40.5 37.9-44.3 84.4-62.1 95.6-17.8 11.2-38.8 23.2-41.1 15.8-2.3-7.4 39.3-93.5 72.8-131.4 10.8-12.7 26.9-5 62.2-22.8 35.3-17.8 133.5-95.2 162.2-126.4 28.7-31.2 29.8-54.4 53.6-73.9 23.8-19.5 28.6-32.2 26.7-37.5z m0 0" fill="#73C69A" p-id="3083"></path><path d="M228.6 519c-10.6 38.5-6.6 113.2 1 149.5s29.2 140.2 29.2 140.2-15.8-109.6-22.5-153.3c-6.7-43.8-7.7-136.4-7.7-136.4z m106.2-258.1c-14.4 45.4-13.6 120.9-10.7 143.2 2.9 22.2 23.8 132.8 36.2 147-16-68.8-26.4-112.2-30.8-152.4-4.4-40-0.4-72.1 5.3-137.8z m296.5 399.6c-31 36.2-95.7 75.2-116.1 84.4-20.4 9.2-125.5 49.6-144.1 46.5 67-22.6 109.3-36.5 145.8-53.9 36.2-17.4 61.4-37.7 114.4-77z m-144.5-534c-9.4 25.7-40.7 189.8-19.6 259.8-13.5-80.7 19.6-259.8 19.6-259.8z m283.8 79.4C734 225.7 572.6 361.1 561.3 378c31-20.7 209.3-172.1 209.3-172.1zM786 419.5c-17.2 23-158.5 145.6-253.5 134.4C680.5 524.1 786 419.5 786 419.5z m0 0" fill="#00757F" p-id="3084"></path></svg>